<?xml version="1.0" standalone="no"?>
<!DOCTYPE svg PUBLIC "-//W3C//DTD SVG 20010904//EN"
 "http://www.w3.org/TR/2001/REC-SVG-20010904/DTD/svg10.dtd">
<svg version="1.0" xmlns="http://www.w3.org/2000/svg"
 width="640.000000pt" height="640.000000pt" viewBox="0 0 640.000000 640.000000"
 preserveAspectRatio="xMidYMid meet">
<metadata>
Created by potrace 1.11, written by Peter Selinger 2001-2013
</metadata>
<g transform="translate(0.000000,640.000000) scale(0.100000,-0.100000)"
fill="#000000" stroke="none">
<path d="M4 5854 c12 -97 30 -169 184 -734 27 -102 65 -250 82 -330 32 -140
71 -284 90 -325 5 -11 20 -47 33 -81 69 -175 200 -329 337 -396 86 -43 171
-64 285 -74 44 -3 118 -17 164 -30 46 -13 89 -24 97 -24 22 0 17 -14 -24 -61
-75 -87 -176 -228 -220 -309 -109 -197 -192 -420 -218 -586 -3 -21 -8 -42 -10
-45 -16 -27 -25 -375 -12 -495 47 -423 249 -826 577 -1154 358 -357 823 -592
1346 -679 184 -30 196 -31 415 -36 351 -8 634 37 960 150 826 287 1406 967
1485 1742 9 82 9 271 0 353 -10 105 -20 161 -46 265 -68 272 -214 556 -398
772 l-61 73 28 6 c15 3 68 17 117 31 50 15 117 28 150 29 226 12 399 98 521
261 108 142 175 313 248 633 24 107 61 254 81 325 129 466 166 612 180 719 l7
49 -78 -6 c-353 -28 -1159 -318 -1479 -532 -103 -69 -153 -119 -220 -219 -106
-160 -136 -257 -171 -546 -3 -25 -12 -79 -20 -120 -7 -41 -16 -86 -18 -100 -5
-30 -2 -31 -101 15 -261 121 -521 193 -830 229 -142 17 -447 17 -595 1 -284
-32 -580 -110 -807 -215 -47 -22 -89 -40 -92 -40 -7 0 -32 137 -61 340 -20
145 -44 230 -92 325 -77 152 -160 246 -298 337 -103 67 -347 186 -530 257 -74
29 -144 57 -155 62 -11 4 -83 28 -160 53 -314 101 -513 147 -648 151 l-48 1 5
-42z"/>
</g>
</svg>
